<svg width="140" height="40" viewBox="0 0 140 40" fill="none" xmlns="http://www.w3.org/2000/svg">
<path fill-rule="evenodd" clip-rule="evenodd" d="M35.9986 21.2515C35.3549 30.6085 27.543 38.0001 17.9993 38.0001C8.45563 38.0001 0.643786 30.6085 0 21.2515H6.39974C6.61701 22.2811 6.88342 23.2089 7.16423 23.9546C7.52297 24.9065 8.98506 28.3557 10.6623 30.3994C12.7055 32.8896 13.3806 32.5913 13.6576 29.987C13.7906 28.7369 13.9841 27.1837 14.4712 25.874C15.8613 22.1328 19.6689 21.9705 20.9239 26.125C21.5084 28.0596 21.6083 30.5447 21.5329 32.4316C21.3813 36.2142 23.8701 34.3856 25.3177 32.3095C27.064 29.8058 28.8281 25.52 29.6523 21.2515H35.9986Z" fill="white"/>
<path fill-rule="evenodd" clip-rule="evenodd" d="M17.9993 2C27.543 2 35.3549 9.39158 35.9986 18.7491H30.0216C30.3325 15.6365 30.0224 12.7281 28.698 10.7613C26.3177 7.22587 23.6121 8.20141 20.181 9.75873C15.8884 11.7073 14.6262 11.7111 12.0346 11.8547C14.7825 10.9045 15.489 11.0938 17.6969 9.99745C14.8401 9.73381 12.4441 7.70582 10.0791 8.25591C6.18924 9.16132 5.51877 14.2731 6.00246 18.7491H0C0.643363 9.39158 8.4552 2 17.9993 2Z" fill="white"/>
<path d="M51.671 11.84C52.7164 11.84 53.519 11.952 54.079 12.176C54.639 12.4 55.1244 12.6427 55.535 12.904C55.759 13.0347 55.9364 13.1373 56.067 13.212C56.2164 13.268 56.3564 13.296 56.487 13.296C56.6737 13.296 56.8044 13.1933 56.879 12.988C56.9724 12.7827 57.047 12.4747 57.103 12.064H57.747C57.7284 12.4187 57.7004 12.8293 57.663 13.296C57.6444 13.7627 57.6257 14.388 57.607 15.172C57.607 15.9373 57.607 16.9547 57.607 18.224H56.963C56.907 17.272 56.6924 16.3573 56.319 15.48C55.9644 14.6027 55.451 13.884 54.779 13.324C54.1257 12.7453 53.2857 12.456 52.259 12.456C51.3444 12.456 50.579 12.7267 49.963 13.268C49.3657 13.8093 49.067 14.5373 49.067 15.452C49.067 16.236 49.263 16.8987 49.655 17.44C50.047 17.9627 50.5977 18.476 51.307 18.98C52.035 19.4653 52.8937 20.0253 53.883 20.66C54.7977 21.2573 55.619 21.8547 56.347 22.452C57.075 23.0307 57.6444 23.6747 58.055 24.384C58.4844 25.0933 58.699 25.9613 58.699 26.988C58.699 28.2013 58.4004 29.2093 57.803 30.012C57.2057 30.8147 56.403 31.412 55.395 31.804C54.387 32.196 53.2857 32.392 52.091 32.392C50.9897 32.392 50.1124 32.28 49.459 32.056C48.8244 31.832 48.2737 31.5987 47.807 31.356C47.3964 31.0947 47.079 30.964 46.855 30.964C46.6684 30.964 46.5284 31.0667 46.435 31.272C46.3604 31.4773 46.295 31.7853 46.239 32.196H45.595C45.6324 31.7667 45.651 31.2627 45.651 30.684C45.6697 30.1053 45.679 29.3587 45.679 28.444C45.6977 27.5107 45.707 26.3347 45.707 24.916H46.351C46.4257 26.1107 46.631 27.2307 46.967 28.276C47.3217 29.3027 47.8537 30.1333 48.563 30.768C49.291 31.4027 50.2524 31.72 51.447 31.72C52.1004 31.72 52.6884 31.608 53.211 31.384C53.7524 31.1413 54.1817 30.7773 54.499 30.292C54.8164 29.788 54.975 29.1533 54.975 28.388C54.975 27.6227 54.7977 26.9507 54.443 26.372C54.0884 25.7933 53.5937 25.252 52.959 24.748C52.3244 24.244 51.5777 23.7307 50.719 23.208C49.8417 22.648 49.0204 22.0787 48.255 21.5C47.4897 20.9213 46.8737 20.268 46.407 19.54C45.959 18.7933 45.735 17.8973 45.735 16.852C45.735 15.6947 46.015 14.752 46.575 14.024C47.135 13.2773 47.863 12.7267 48.759 12.372C49.6737 12.0173 50.6444 11.84 51.671 11.84ZM69.4044 17.132C70.1324 17.132 70.7391 17.2347 71.2244 17.44C71.7284 17.6453 72.1204 17.9067 72.4004 18.224C72.7364 18.5787 72.9698 19.0547 73.1004 19.652C73.2311 20.2307 73.2964 20.968 73.2964 21.864V29.396C73.2964 30.18 73.4271 30.712 73.6884 30.992C73.9684 31.272 74.4351 31.412 75.0884 31.412V32C74.7524 31.9813 74.2484 31.9627 73.5764 31.944C72.9044 31.9067 72.2511 31.888 71.6164 31.888C70.9444 31.888 70.2911 31.9067 69.6564 31.944C69.0404 31.9627 68.5738 31.9813 68.2564 32V31.412C68.7978 31.412 69.1804 31.272 69.4044 30.992C69.6471 30.712 69.7684 30.18 69.7684 29.396V20.912C69.7684 20.408 69.7311 19.96 69.6564 19.568C69.5818 19.1573 69.4231 18.84 69.1804 18.616C68.9378 18.3733 68.5644 18.252 68.0604 18.252C67.4818 18.252 66.9591 18.42 66.4924 18.756C66.0258 19.092 65.6524 19.5587 65.3724 20.156C65.1111 20.7347 64.9804 21.388 64.9804 22.116V29.396C64.9804 30.18 65.0924 30.712 65.3164 30.992C65.5404 31.272 65.9324 31.412 66.4924 31.412V32C66.1751 31.9813 65.7084 31.9627 65.0924 31.944C64.4951 31.9067 63.8791 31.888 63.2444 31.888C62.5538 31.888 61.8538 31.9067 61.1444 31.944C60.4351 31.9627 59.9031 31.9813 59.5484 32V31.412C60.2391 31.412 60.7244 31.272 61.0044 30.992C61.3031 30.712 61.4524 30.18 61.4524 29.396V20.576C61.4524 19.736 61.3124 19.12 61.0324 18.728C60.7711 18.3173 60.2764 18.112 59.5484 18.112V17.524C60.1458 17.58 60.7244 17.608 61.2844 17.608C61.9751 17.608 62.6284 17.58 63.2444 17.524C63.8791 17.4493 64.4578 17.3467 64.9804 17.216V20.016C65.4471 18.9893 66.0724 18.252 66.8564 17.804C67.6404 17.356 68.4898 17.132 69.4044 17.132ZM77.8324 17.132C78.5604 17.132 79.1671 17.2347 79.6524 17.44C80.1564 17.6453 80.5484 17.9067 80.8284 18.224C81.1644 18.5787 81.3978 19.0547 81.5284 19.652C81.6591 20.2307 81.7244 20.968 81.7244 21.864V29.396C81.7244 30.18 81.8644 30.712 82.1444 30.992C82.4431 31.272 82.9378 31.412 83.6284 31.412V32C83.2924 31.9813 82.7698 31.9627 82.0604 31.944C81.3698 31.9067 80.6978 31.888 80.0444 31.888C79.3724 31.888 78.7191 31.9067 78.0844 31.944C77.4684 31.9627 77.0018 31.9813 76.6844 32V31.412C77.2258 31.412 77.6084 31.272 77.8324 30.992C78.0751 30.712 78.1964 30.18 78.1964 29.396V20.912C78.1964 20.408 78.1498 19.96 78.0564 19.568C77.9818 19.1573 77.8138 18.84 77.5524 18.616C77.2911 18.3733 76.8991 18.252 76.3764 18.252C75.7978 18.252 75.2751 18.4293 74.8084 18.784C74.3418 19.1387 73.9684 19.6147 73.6884 20.212C73.4271 20.7907 73.2871 21.444 73.2684 22.172L73.1284 20.156C73.6324 18.9987 74.3044 18.2053 75.1444 17.776C75.9844 17.3467 76.8804 17.132 77.8324 17.132ZM87.084 10.384C87.756 10.384 88.3067 10.5707 88.736 10.944C89.1654 11.3173 89.38 11.812 89.38 12.428C89.38 13.044 89.1654 13.5387 88.736 13.912C88.3067 14.2853 87.756 14.472 87.084 14.472C86.412 14.472 85.8614 14.2853 85.432 13.912C85.0027 13.5387 84.788 13.044 84.788 12.428C84.788 11.812 85.0027 11.3173 85.432 10.944C85.8614 10.5707 86.412 10.384 87.084 10.384ZM89.044 17.216V29.396C89.044 30.18 89.184 30.712 89.464 30.992C89.7627 31.272 90.2574 31.412 90.948 31.412V32C90.612 31.9813 90.0987 31.9627 89.408 31.944C88.7174 31.9067 88.0174 31.888 87.308 31.888C86.6174 31.888 85.9174 31.9067 85.208 31.944C84.4987 31.9627 83.9667 31.9813 83.612 32V31.412C84.3027 31.412 84.788 31.272 85.068 30.992C85.3667 30.712 85.516 30.18 85.516 29.396V20.604C85.516 19.7453 85.376 19.12 85.096 18.728C84.8347 18.3173 84.34 18.112 83.612 18.112V17.524C84.2094 17.58 84.788 17.608 85.348 17.608C86.0387 17.608 86.692 17.58 87.308 17.524C87.9427 17.4493 88.5214 17.3467 89.044 17.216ZM96.3693 10.076V29.396C96.3693 30.18 96.5093 30.712 96.7893 30.992C97.088 31.272 97.5826 31.412 98.2733 31.412V32C97.9373 31.9813 97.424 31.9627 96.7333 31.944C96.0613 31.9067 95.3706 31.888 94.6613 31.888C93.9706 31.888 93.2613 31.9067 92.5333 31.944C91.824 31.9627 91.292 31.9813 90.9373 32V31.412C91.628 31.412 92.1133 31.272 92.3933 30.992C92.692 30.712 92.8413 30.18 92.8413 29.396V13.436C92.8413 12.596 92.7106 11.98 92.4493 11.588C92.188 11.1773 91.684 10.972 90.9373 10.972V10.384C91.5346 10.44 92.1133 10.468 92.6733 10.468C93.3826 10.468 94.0453 10.44 94.6613 10.384C95.2773 10.3093 95.8466 10.2067 96.3693 10.076ZM101.934 10.384C102.606 10.384 103.157 10.5707 103.586 10.944C104.015 11.3173 104.23 11.812 104.23 12.428C104.23 13.044 104.015 13.5387 103.586 13.912C103.157 14.2853 102.606 14.472 101.934 14.472C101.262 14.472 100.711 14.2853 100.282 13.912C99.8525 13.5387 99.6379 13.044 99.6379 12.428C99.6379 11.812 99.8525 11.3173 100.282 10.944C100.711 10.5707 101.262 10.384 101.934 10.384ZM103.894 17.216V29.396C103.894 30.18 104.034 30.712 104.314 30.992C104.613 31.272 105.107 31.412 105.798 31.412V32C105.462 31.9813 104.949 31.9627 104.258 31.944C103.567 31.9067 102.867 31.888 102.158 31.888C101.467 31.888 100.767 31.9067 100.058 31.944C99.3485 31.9627 98.8165 31.9813 98.4619 32V31.412C99.1525 31.412 99.6379 31.272 99.9179 30.992C100.217 30.712 100.366 30.18 100.366 29.396V20.604C100.366 19.7453 100.226 19.12 99.9459 18.728C99.6845 18.3173 99.1899 18.112 98.4619 18.112V17.524C99.0592 17.58 99.6379 17.608 100.198 17.608C100.889 17.608 101.542 17.58 102.158 17.524C102.793 17.4493 103.371 17.3467 103.894 17.216ZM113.179 10.104C113.795 10.104 114.327 10.188 114.775 10.356C115.242 10.5053 115.643 10.7107 115.979 10.972C116.259 11.196 116.483 11.476 116.651 11.812C116.838 12.148 116.931 12.5213 116.931 12.932C116.931 13.436 116.754 13.8653 116.399 14.22C116.063 14.5747 115.634 14.752 115.111 14.752C114.551 14.752 114.084 14.5933 113.711 14.276C113.356 13.94 113.179 13.4827 113.179 12.904C113.179 12.456 113.3 12.0733 113.543 11.756C113.804 11.42 114.168 11.1867 114.635 11.056C114.579 10.9253 114.458 10.8133 114.271 10.72C114.084 10.6267 113.832 10.58 113.515 10.58C113.142 10.58 112.815 10.6547 112.535 10.804C112.274 10.9533 112.059 11.1587 111.891 11.42C111.704 11.7373 111.574 12.204 111.499 12.82C111.424 13.436 111.387 14.3693 111.387 15.62V17.552H114.383V18.112H111.387V29.116C111.387 30.0307 111.63 30.6467 112.115 30.964C112.619 31.2627 113.291 31.412 114.131 31.412V32C113.664 31.9813 113.011 31.9627 112.171 31.944C111.331 31.9067 110.435 31.888 109.483 31.888C108.811 31.888 108.139 31.9067 107.467 31.944C106.795 31.9627 106.291 31.9813 105.955 32V31.412C106.646 31.412 107.131 31.272 107.411 30.992C107.71 30.712 107.859 30.18 107.859 29.396V18.112H105.843V17.552H107.859C107.859 16.4507 107.915 15.536 108.027 14.808C108.139 14.0613 108.307 13.4267 108.531 12.904C108.774 12.3813 109.1 11.9147 109.511 11.504C109.903 11.0933 110.416 10.7573 111.051 10.496C111.704 10.2347 112.414 10.104 113.179 10.104ZM127.927 17.524V18.112C127.573 18.1867 127.237 18.3827 126.919 18.7C126.621 19.0173 126.331 19.5773 126.051 20.38L121.907 31.748L121.039 33.064L115.271 19.68C114.917 18.9707 114.581 18.532 114.263 18.364C113.946 18.196 113.685 18.112 113.479 18.112V17.524C114.021 17.58 114.581 17.6267 115.159 17.664C115.757 17.6827 116.354 17.692 116.951 17.692C117.642 17.692 118.305 17.6733 118.939 17.636C119.593 17.5987 120.199 17.5613 120.759 17.524V18.112C120.33 18.112 119.947 18.14 119.611 18.196C119.275 18.252 119.051 18.4107 118.939 18.672C118.846 18.9147 118.921 19.344 119.163 19.96L122.663 28.5L122.439 28.612L124.903 21.948C125.221 21.0707 125.351 20.3613 125.295 19.82C125.239 19.2787 125.034 18.868 124.679 18.588C124.325 18.308 123.839 18.1493 123.223 18.112V17.524C123.522 17.5427 123.821 17.5613 124.119 17.58C124.418 17.5987 124.707 17.6173 124.987 17.636C125.267 17.636 125.538 17.636 125.799 17.636C126.191 17.636 126.574 17.6267 126.947 17.608C127.339 17.5893 127.666 17.5613 127.927 17.524ZM121.907 31.748L120.843 34.576C120.675 35.0427 120.489 35.4347 120.283 35.752C120.097 36.088 119.882 36.3587 119.639 36.564C119.359 36.8067 119.014 36.984 118.603 37.096C118.211 37.208 117.773 37.264 117.287 37.264C116.858 37.264 116.438 37.1893 116.027 37.04C115.635 36.8907 115.299 36.6667 115.019 36.368C114.758 36.0693 114.627 35.6773 114.627 35.192C114.627 34.6693 114.805 34.2493 115.159 33.932C115.514 33.6147 115.999 33.456 116.615 33.456C117.157 33.456 117.595 33.5867 117.931 33.848C118.286 34.128 118.463 34.5387 118.463 35.08C118.463 35.4347 118.361 35.752 118.155 36.032C117.95 36.312 117.661 36.5267 117.287 36.676C117.381 36.6947 117.465 36.704 117.539 36.704C117.633 36.7227 117.707 36.732 117.763 36.732C118.305 36.732 118.79 36.5547 119.219 36.2C119.649 35.8453 119.994 35.2853 120.255 34.52L121.263 31.748H121.907ZM134.451 17.132C136.094 17.132 137.382 17.6267 138.315 18.616C139.248 19.6053 139.715 21.1827 139.715 23.348H130.279L130.251 22.816H136.467C136.504 21.9013 136.448 21.0613 136.299 20.296C136.15 19.512 135.907 18.8867 135.571 18.42C135.254 17.9533 134.834 17.72 134.311 17.72C133.602 17.72 132.986 18.14 132.463 18.98C131.94 19.8013 131.614 21.1547 131.483 23.04L131.595 23.208C131.558 23.4507 131.53 23.712 131.511 23.992C131.511 24.272 131.511 24.552 131.511 24.832C131.511 26.12 131.698 27.184 132.071 28.024C132.444 28.864 132.93 29.48 133.527 29.872C134.124 30.264 134.74 30.46 135.375 30.46C135.804 30.46 136.243 30.3947 136.691 30.264C137.139 30.1333 137.578 29.8907 138.007 29.536C138.436 29.1813 138.828 28.6773 139.183 28.024L139.715 28.248C139.51 28.9013 139.164 29.5547 138.679 30.208C138.212 30.8427 137.606 31.3653 136.859 31.776C136.112 32.1867 135.235 32.392 134.227 32.392C132.958 32.392 131.838 32.112 130.867 31.552C129.896 30.992 129.14 30.1613 128.599 29.06C128.058 27.94 127.787 26.5773 127.787 24.972C127.787 23.2733 128.067 21.8453 128.627 20.688C129.206 19.5307 129.999 18.6533 131.007 18.056C132.015 17.44 133.163 17.132 134.451 17.132Z" fill="white"/>
</svg>
