<svg width="16" height="16" viewBox="0 0 16 16" fill="none" xmlns="http://www.w3.org/2000/svg">
<path d="M6.05176 1.85645C7.35379 1.82373 8.64329 1.82373 9.94531 1.85645L9.98438 1.85742C11.0005 1.88294 11.8182 1.90349 12.4736 2.01758C13.16 2.13711 13.7182 2.36681 14.1895 2.83984C14.6585 3.31077 14.8867 3.8602 15.0039 4.53516C15.1155 5.17804 15.1323 5.97634 15.1533 6.96484L15.1543 7.00391C15.1685 7.66813 15.1685 8.32894 15.1543 8.99316L15.1533 9.03223C15.1323 10.0207 15.1155 10.819 15.0039 11.4619C14.8867 12.1369 14.6585 12.6863 14.1895 13.1572C13.7182 13.6303 13.16 13.86 12.4736 13.9795C11.8182 14.0936 11.0005 14.1141 9.98438 14.1396L9.94531 14.1406C8.64329 14.1733 7.35378 14.1733 6.05176 14.1406L6.0127 14.1396C4.99654 14.1141 4.17883 14.0936 3.52344 13.9795C2.83711 13.86 2.27886 13.6303 1.80762 13.1572C1.33857 12.6863 1.11042 12.1369 0.993164 11.4619C0.881523 10.819 0.864814 10.0207 0.84375 9.03223L0.842773 8.99316C0.828608 8.32893 0.828609 7.66814 0.842773 7.00391L0.84375 6.96484C0.864813 5.97634 0.881523 5.17804 0.993164 4.53516C1.11042 3.8602 1.33857 3.31077 1.80762 2.83984C2.27886 2.36681 2.83711 2.13711 3.52344 2.01758C4.17883 1.90349 4.99654 1.88294 6.0127 1.85742L6.05176 1.85645ZM10.3037 7.04395C9.44152 7.53247 8.74068 7.83105 7.99902 7.83105C7.25739 7.83104 6.5565 7.53245 5.69434 7.04395L1.94531 4.91992C1.87621 5.44796 1.8612 6.11553 1.8418 7.02539C1.82794 7.67541 1.82793 8.32166 1.8418 8.97168C1.86391 10.0084 1.88138 10.7304 1.97852 11.29C2.07156 11.8259 2.23086 12.1663 2.51562 12.4521C2.79842 12.736 3.1428 12.8981 3.69434 12.9941C4.26849 13.0941 5.0127 13.1139 6.07715 13.1406C7.36232 13.1729 8.63475 13.1729 9.91992 13.1406C10.9844 13.1139 11.7286 13.0941 12.3027 12.9941C12.8543 12.8981 13.1986 12.736 13.4814 12.4521C13.7662 12.1663 13.9255 11.8259 14.0186 11.29C14.1157 10.7304 14.1332 10.0084 14.1553 8.97168C14.1691 8.32166 14.1691 7.67541 14.1553 7.02539C14.1359 6.11546 14.1199 5.44798 14.0508 4.91992L10.3037 7.04395ZM9.91992 2.85645C8.63475 2.82416 7.36232 2.82416 6.07715 2.85645C5.0127 2.88319 4.26849 2.90294 3.69434 3.00293C3.1428 3.09901 2.79842 3.26105 2.51562 3.54492C2.40005 3.66095 2.30585 3.78643 2.22754 3.92969L6.1875 6.17383C7.02432 6.64798 7.53224 6.83104 7.99902 6.83105C8.46582 6.83105 8.97371 6.64798 9.81055 6.17383L13.7686 3.92969C13.6903 3.7866 13.5969 3.66084 13.4814 3.54492C13.1986 3.26105 12.8543 3.09901 12.3027 3.00293C11.7286 2.90294 10.9844 2.88319 9.91992 2.85645Z" fill="white"/>
</svg>
