<svg xmlns="http://www.w3.org/2000/svg" width="64" height="64" viewBox="0 0 64 64" fill="none">
  <defs>
    <linearGradient id="fv" x1="0" y1="0" x2="64" y2="64" gradientUnits="userSpaceOnUse">
      <stop offset="0" stop-color="#24a3b1"/>
      <stop offset="1" stop-color="#011f23"/>
    </linearGradient>
  </defs>
  <rect width="64" height="64" rx="16" fill="url(#fv)"/>
  <!-- tooth/drop mark -->
  <path d="M32 12c8.2 0 14.2 5.7 14.2 13.8 0 6.2-2 10-3.9 16.9-1.5 5.3-2.6 11-5.9 11-2.7 0-2.9-4.7-4.4-4.7s-1.7 4.7-4.4 4.7c-3.3 0-4.4-5.7-5.9-11C19.8 35.8 17.8 32 17.8 25.8 17.8 17.7 23.8 12 32 12Z" fill="#ffffff"/>
  <circle cx="40" cy="24" r="3.4" fill="#24a3b1"/>
</svg>
